<svg id="Layer_1" data-name="Layer 1" xmlns="http://www.w3.org/2000/svg" viewBox="0 0 776.14 124.19"><defs><style>.cls-1{fill:#4dbea2;}.cls-2{fill:#fff;}</style></defs><path id="Path_1" data-name="Path 1" class="cls-1" d="M57.17,23.51V16.57h13v17l13.16,8.85A62,62,0,0,0-40.37,51.69c.15,2,.4,3.93.73,5.88l74-51.1Z" transform="translate(40.54 14.96)"/><path id="Path_2" data-name="Path 2" class="cls-1" d="M-35.85,71A62,62,0,0,0,83.39,48.52L34.69,20Z" transform="translate(40.54 14.96)"/><rect id="Rectangle_1" data-name="Rectangle 1" class="cls-2" x="75.07" y="70.67" width="5.86" height="5.86"/><path id="Path_3" data-name="Path 3" class="cls-2" d="M40.6,61.78H34.32V55.49H40.6Zm-5.86-.42h5.44V55.92H34.74Z" transform="translate(40.54 14.96)"/><rect id="Rectangle_2" data-name="Rectangle 2" class="cls-2" x="65.76" y="61.35" width="5.86" height="5.86"/><path id="Path_4" data-name="Path 4" class="cls-2" d="M31.3,52.48H25V46.19H31.3ZM25.43,52h5.44V46.6H25.43Z" transform="translate(40.54 14.96)"/><rect id="Rectangle_3" data-name="Rectangle 3" class="cls-2" x="75.07" y="61.35" width="5.86" height="5.86"/><path id="Path_5" data-name="Path 5" class="cls-2" d="M40.6,52.48H34.32V46.19H40.6ZM34.74,52h5.44V46.6H34.74Z" transform="translate(40.54 14.96)"/><path id="Path_6" data-name="Path 6" class="cls-2" d="M21.12,65.6l.08-23.36,23.3.08-.07,23.23Zm.66-.58h22V43h-22Z" transform="translate(40.54 14.96)"/><path id="Path_7" data-name="Path 7" class="cls-2" d="M44.64,65.81H20.92L21,42.1l23.72.07Zm-23.31-.43h22.9V42.58L21.41,42.5Zm22.73-.15H21.55V42.73H44.06ZM22,64.8H43.62V43.16H22Z" transform="translate(40.54 14.96)"/><rect id="Rectangle_4" data-name="Rectangle 4" class="cls-2" x="65.76" y="70.67" width="5.86" height="5.86"/><path id="Path_8" data-name="Path 8" class="cls-2" d="M31.3,61.78H25V55.49H31.3Zm-5.87-.42h5.44V55.92H25.43Z" transform="translate(40.54 14.96)"/><path id="Path_9" data-name="Path 9" class="cls-2" d="M150.58,26.35v2.77c0,8-2.43,13.05-7.85,15.59,6.52,2.54,9.07,8.41,9.07,16.59v6.3c0,12-6.31,18.36-18.47,18.36H114.2V8.54h18.35C145.16,8.54,150.58,14.42,150.58,26.35ZM126.34,19.6V40.06h4.76c4.53,0,7.3-2,7.3-8.18V27.57c0-5.53-1.88-8-6.2-8Zm0,31.52V74.9h7c4.09,0,6.3-1.88,6.3-7.63V60.53c0-7.19-2.32-9.41-7.85-9.41Z" transform="translate(40.54 14.96)"/><path id="Path_10" data-name="Path 10" class="cls-2" d="M198.47,86H186.19l-2.1-14H169.16l-2.1,14H155.89L168.27,8.54h17.81ZM170.71,61.42h11.72l-5.86-39.15Z" transform="translate(40.54 14.96)"/><path id="Path_11" data-name="Path 11" class="cls-2" d="M229.54,86c-.66-2-1.1-3.21-1.1-9.51V64.29c0-7.19-2.44-9.85-8-9.85h-4.2V86H204.11V8.54h18.35c12.61,0,18,5.87,18,17.81v6.07c0,8-2.54,13.16-8,15.71,6.08,2.54,8.07,8.4,8.07,16.48v12c0,3.76.11,6.53,1.33,9.4ZM216.27,19.6V43.42H221c4.53,0,7.3-2,7.3-8.18V27.57c0-5.53-1.88-8-6.2-8Z" transform="translate(40.54 14.96)"/><path id="Path_12" data-name="Path 12" class="cls-2" d="M245,8.54h37.61V19.6H269.91V86H257.74V19.6H245Z" transform="translate(40.54 14.96)"/><path id="Path_13" data-name="Path 13" class="cls-2" d="M287.93,8.54H300.1V74.9h20V86H287.93Z" transform="translate(40.54 14.96)"/><path id="Path_14" data-name="Path 14" class="cls-2" d="M337.59,41.17h16.75V52.23h-16.7V74.9h21V86H325.42V8.54H358.6V19.6h-21Z" transform="translate(40.54 14.96)"/><path id="Path_15" data-name="Path 15" class="cls-2" d="M362.58,8.54h37.61V19.6H387.47V86H375.34V19.6H362.58Z" transform="translate(40.54 14.96)"/><path id="Path_16" data-name="Path 16" class="cls-2" d="M402,8.54h37.6V19.6H426.84V86H414.67V19.6H402Z" transform="translate(40.54 14.96)"/><path id="Path_17" data-name="Path 17" class="cls-2" d="M487.44,86c-.66-2-1.11-3.21-1.11-9.51V64.29c0-7.19-2.43-9.85-8-9.85h-4.2V86H462V8.54h18.34c12.61,0,18,5.87,18,17.81v6.07c0,8-2.54,13.16-8,15.71,6.08,2.54,8.07,8.4,8.07,16.48v12c0,3.76.11,6.53,1.33,9.4ZM474.17,19.6V43.42h4.75c4.54,0,7.3-2,7.3-8.18V27.57c0-5.53-1.88-8-6.19-8Z" transform="translate(40.54 14.96)"/><path id="Path_18" data-name="Path 18" class="cls-2" d="M505.46,27.12c0-12.38,6.53-19.46,18.47-19.46s18.47,7.08,18.47,19.46v40.3c0,12.39-6.52,19.47-18.47,19.47s-18.47-7.12-18.47-19.47Zm12.17,41c0,5.53,2.43,7.63,6.3,7.63s6.31-2.1,6.31-7.63V26.35c0-5.53-2.43-7.63-6.31-7.63s-6.3,2.1-6.3,7.63Z" transform="translate(40.54 14.96)"/><path id="Path_19" data-name="Path 19" class="cls-2" d="M549.26,27.12c0-12.38,6.52-19.46,18.47-19.46s18.47,7.08,18.47,19.46v40.3c0,12.39-6.53,19.47-18.47,19.47s-18.47-7.12-18.47-19.47Zm12.16,41c0,5.53,2.44,7.63,6.31,7.63s6.3-2.1,6.3-7.63V26.35c0-5.53-2.43-7.63-6.3-7.63s-6.31,2.1-6.31,7.63Z" transform="translate(40.54 14.96)"/><path id="Path_20" data-name="Path 20" class="cls-2" d="M606.21,42.94h15.71V54H606.21V86H594.05V8.54h32.18V19.6h-20Z" transform="translate(40.54 14.96)"/><path id="Path_21" data-name="Path 21" class="cls-2" d="M632.09,8.54h12.17V86H632.09Z" transform="translate(40.54 14.96)"/><path id="Path_22" data-name="Path 22" class="cls-2" d="M663.94,29.89V86h-11V8.54H668.2l12.5,46.34V8.54h10.84V86H679Z" transform="translate(40.54 14.96)"/><path id="Path_23" data-name="Path 23" class="cls-2" d="M718.57,42.83h17V67.42c0,12.39-6.19,19.47-18.13,19.47s-18.1-7.12-18.1-19.47V27.12c0-12.38,6.18-19.46,18.13-19.46s18.13,7.08,18.13,19.46v7.53H724.1v-8.3c0-5.53-2.43-7.63-6.3-7.63s-6.31,2.1-6.31,7.63V68.16c0,5.53,2.44,7.52,6.31,7.52s6.3-2,6.3-7.52V53.89h-5.53Z" transform="translate(40.54 14.96)"/></svg>